# xmcd
#
# Track frame offsets: 
#        150
#        12428
#        25796
#        37227
#        48073
#        58492
#        68881
#        81143
#        93726
#        105115
#        116684
#        127038
#        135890
#        145972
#        157057
#        167218
#        177404
#        188821
#        197419
#        209799
#
# Disc length: 2946 seconds
#
# Revision: 1
# Processed by: cddbd v1.5.2PL0 Copyright (c) Steve Scherf et al.
# Submitted via: ExactAudioCopyFreeDBPlugin 1.0
#
DISCID=240b8014
DTITLE=Little Willie John, Smiley Lewis - ABC Of The Blues - Vol. 25 -
DTITLE=John, Lewis
DYEAR=2010
DGENRE=Blues
TTITLE0=Little Willie John - Fever
TTITLE1=Little Willie John - All Around The World
TTITLE2=Little Willie John - Suffering With The Blues
TTITLE3=Little Willie John - Tell It Like It Is
TTITLE4=Little Willie John - Person To Person
TTITLE5=Little Willie John - Need Your Love So Bad
TTITLE6=Little Willie John - Talk To Me, Talk To Me
TTITLE7=Little Willie John - Home At Last
TTITLE8=Little Willie John - My Nerves
TTITLE9=Little Willie John - Leave My Kitten Alone
TTITLE10=Smiley Lewis - How Long
TTITLE11=Smiley Lewis - Goin' To Jump And Shout
TTITLE12=Smiley Lewis - Ain't Goin' There No More
TTITLE13=Smiley Lewis - Last Night
TTITLE14=Smiley Lewis - Tee-Nah-Nah
TTITLE15=Smiley Lewis - Lonesome Highway
TTITLE16=Smiley Lewis - Lying Woman
TTITLE17=Smiley Lewis - No Letter Today
TTITLE18=Smiley Lewis - Mama Don't Like
TTITLE19=Smiley Lewis - I Want To Be With Her
EXTD=
EXTT0=
EXTT1=
EXTT2=
EXTT3=
EXTT4=
EXTT5=
EXTT6=
EXTT7=
EXTT8=
EXTT9=
EXTT10=
EXTT11=
EXTT12=
EXTT13=
EXTT14=
EXTT15=
EXTT16=
EXTT17=
EXTT18=
EXTT19=
PLAYORDER=
